<?xml version="1.0" encoding="UTF-8"?>
<svg width="1025px" height="1024px" viewBox="0 0 1025 1024" version="1.1" xmlns="http://www.w3.org/2000/svg" xmlns:xlink="http://www.w3.org/1999/xlink">
    <title>logo-active</title>
    <defs>
        <radialGradient cx="51.8165436%" cy="52.5505%" fx="51.8165436%" fy="52.5505%" r="93.5911225%" id="radialGradient-1">
            <stop stop-color="#E05858" offset="0%"></stop>
            <stop stop-color="#D60A0A" offset="100%"></stop>
        </radialGradient>
        <rect id="path-2" x="0" y="0" width="1004.23643" height="1004.23643" rx="61"></rect>
        <rect id="path-4" x="0" y="0" width="1004.23643" height="1004.23643" rx="61"></rect>
    </defs>
    <g id="Logotypes" stroke="none" stroke-width="1" fill="none" fill-rule="evenodd">
        <g id="logo-active" transform="translate(0.838556, 0.000000)">
            <rect id="Rectangle" stroke-opacity="0.251338505" stroke="#000000" stroke-width="20" fill="url(#radialGradient-1)" x="10" y="10" width="1004" height="1004" rx="61"></rect>
            <g id="Group-5" transform="translate(9.881785, 9.881785)">
                <mask id="mask-3" fill="white">
                    <use xlink:href="#path-2"></use>
                </mask>
                <g id="Mask"></g>
                <g mask="url(#mask-3)" fill="#FFFFFF" id="Combined-Shape" stroke="#9B3535" stroke-linejoin="round" stroke-width="35">
                    <g transform="translate(109.345658, 94.024266)">
                        <path d="M-54.9894225,-72.3438867 L216.194699,168.912968 L201.895252,220.602584 L410.871223,220.602584 L479.859169,352.5496 L809.83976,322.779428 L769.210453,456.500044 L750.375839,456.500044 L760.693897,467.276996 C724.617217,547.814696 694.388436,600.898832 670.819506,627.218314 L670.107336,628.007682 L670.107336,668.910526 L349.566,650.687 L465.97675,914.272014 L14.3535621,914.272014 L48.6174614,348.793199 L15.2730373,311.689438 C19.2948848,162.440154 9.83998428,61.4263104 -14.9546707,9.27406145 L-15.7107212,7.70864702 L-54.9894225,-72.3438867 Z M354.757643,376.374449 L385.706483,394.658398 L387.4105,391.349888 L387.4105,381.943986 L354.757643,376.374449 Z M91.009036,188.633147 C93.2006632,210.631452 95.2793327,235.802261 97.2082725,264.154804 L97.2082725,264.154804 L124.367018,283.796594 L124.045866,282.247267 C117.517062,251.225661 104.672835,218.13071 91.009036,188.633147 Z"></path>
                    </g>
                </g>
            </g>
            <g id="Group-5" transform="translate(9.881785, 9.881785)">
                <mask id="mask-5" fill="white">
                    <use xlink:href="#path-4"></use>
                </mask>
                <g id="Mask"></g>
                <g mask="url(#mask-5)" fill="#FFFFFF" id="Combined-Shape" stroke="#9B3535" stroke-linejoin="round" stroke-width="35">
                    <g transform="translate(109.345658, 94.024266)">
                        <path d="M-54.9894225,-72.3438867 L216.194699,168.912968 L201.895252,220.602584 L410.871223,220.602584 L479.859169,352.5496 L809.83976,322.779428 L769.210453,456.500044 L750.375839,456.500044 L760.693897,467.276996 C724.617217,547.814696 694.388436,600.898832 670.819506,627.218314 L670.107336,628.007682 L670.107336,668.910526 L349.566,650.687 L465.97675,914.272014 L14.3535621,914.272014 L48.6174614,348.793199 L15.2730373,311.689438 C19.2948848,162.440154 9.83998428,61.4263104 -14.9546707,9.27406145 L-15.7107212,7.70864702 L-54.9894225,-72.3438867 Z M354.757643,376.374449 L385.706483,394.658398 L387.4105,391.349888 L387.4105,381.943986 L354.757643,376.374449 Z M91.009036,188.633147 C93.2006632,210.631452 95.2793327,235.802261 97.2082725,264.154804 L97.2082725,264.154804 L124.367018,283.796594 L124.045866,282.247267 C117.517062,251.225661 104.672835,218.13071 91.009036,188.633147 Z"></path>
                    </g>
                </g>
            </g>
        </g>
    </g>
</svg>