<?xml version="1.0" encoding="UTF-8"?>
<svg width="830px" height="829px" viewBox="0 0 830 829" version="1.1" xmlns="http://www.w3.org/2000/svg" xmlns:xlink="http://www.w3.org/1999/xlink">
    <title>Group 5</title>
    <defs>
        <radialGradient cx="64.8070713%" cy="37.2124421%" fx="64.8070713%" fy="37.2124421%" r="98.0004371%" id="radialGradient-1">
            <stop stop-color="#CD6C6C" offset="0%"></stop>
            <stop stop-color="#D60A0A" offset="100%"></stop>
        </radialGradient>
    </defs>
    <g id="Logotypes" stroke="none" stroke-width="1" fill="none" fill-rule="evenodd" stroke-opacity="0.251338505">
        <g id="Group-5" transform="translate(0.838556, 0.000000)" stroke="#000000" stroke-width="6">
            <rect id="Rectangle" fill="url(#radialGradient-1)" x="3" y="3" width="823" height="823" rx="61"></rect>
            <path d="M59.7561921,47.7130603 L247.290183,210.208349 L232.644533,261.771336 L422.567932,261.771336 L482.790539,373.955431 L759.29029,349.659527 L731.868332,437.562343 L696.168304,437.562343 L719.067493,460.857383 C688.275123,526.930534 662.979338,569.613833 643.330058,589.037521 L642.736354,589.618998 L642.736354,616.389713 L348.962926,600.123322 L314.507674,627.404136 L361.303062,609.531436 L467.370813,781.042672 L79.8627159,781.042672 L128.031175,354.066358 L98.9951345,322.597755 C102.760172,175.528156 89.8490338,83.8419706 59.7561921,47.7130603 Z M318.531183,359.246828 L413.065976,413.642292 L421.797306,397.130877 L421.797306,376.40224 L318.531183,359.246828 Z M131.283879,158.444331 C136.747268,184.606076 141.695802,229.467177 146.008744,293.075548 L146.008744,293.075548 L197.010057,329.000657 L196.915843,327.253751 C193.422659,269.420163 152.098664,193.40232 131.283879,158.444331 Z" id="Combined-Shape" fill="#FFFFFF"></path>
        </g>
    </g>
</svg>