<?xml version="1.0" encoding="UTF-8"?>
<svg width="830px" height="829px" viewBox="0 0 830 829" version="1.1" xmlns="http://www.w3.org/2000/svg" xmlns:xlink="http://www.w3.org/1999/xlink">
    <title>Group 5</title>
    <g id="Logotypes" stroke="none" stroke-width="1" fill="none" fill-rule="evenodd">
        <g id="Group-5" transform="translate(0.838556, 0.000000)">
            <rect id="Rectangle" fill="#EFEFEF" x="0" y="0" width="829" height="829" rx="61"></rect>
            <path d="M73.4360264,63.5359528 C73.4360264,63.5359528 130.251572,112.76574 243.882663,211.225315 L228.673765,264.771336 L420.773456,264.771336 L481.082822,377.117047 L755.093173,353.039885 L729.661617,434.562343 L689.012536,434.562343 L715.468226,461.475365 C684.509058,527.682775 659.2651,569.969736 639.736354,588.336248 L639.736354,613.219006 L639.736354,613.219006 L347.99271,597.065006 L297.335525,637.174109 L360.05623,613.219006 L461.988185,778.042672 L83.2201846,778.042672 L131.166004,353.039885 L102.02496,321.457481 C105.222596,193.690079 95.6929514,107.716236 73.4360264,63.5359528 Z M302.643762,353.566364 L414.2646,417.793164 L424.797306,397.875251 L424.797306,373.859509 L302.643762,353.566364 Z M121.964071,137.705557 C130.093992,153.761378 137.143301,206.094404 143.111997,294.704637 C181.138866,321.490603 200.152301,334.883585 200.152301,334.883585 C200.152301,256.507514 121.964071,137.705557 121.964071,137.705557 Z" id="Combined-Shape" fill="#FFFFFF"></path>
        </g>
    </g>
</svg>