<?xml version="1.0" encoding="UTF-8"?>
<svg width="5387px" height="1024px" viewBox="0 0 5387 1024" version="1.1" xmlns="http://www.w3.org/2000/svg" xmlns:xlink="http://www.w3.org/1999/xlink">
    <title>watchdog-logo</title>
    <defs>
        <radialGradient cx="64.8070713%" cy="37.2124421%" fx="64.8070713%" fy="37.2124421%" r="98.0004371%" id="radialGradient-1">
            <stop stop-color="#CD6C6C" offset="0%"></stop>
            <stop stop-color="#D60A0A" offset="100%"></stop>
        </radialGradient>
        <radialGradient cx="51.8165436%" cy="52.5505%" fx="51.8165436%" fy="52.5505%" r="93.5911225%" id="radialGradient-2">
            <stop stop-color="#E05858" offset="0%"></stop>
            <stop stop-color="#D60A0A" offset="100%"></stop>
        </radialGradient>
        <rect id="path-3" x="0" y="0" width="1004.23643" height="1004.23643" rx="61"></rect>
        <rect id="path-5" x="0" y="0" width="1004.23643" height="1004.23643" rx="61"></rect>
    </defs>
    <g id="Logotypes" stroke="none" stroke-width="1" fill="none" fill-rule="evenodd">
        <g id="watchdog-logo" transform="translate(0.838556, 0.000000)">
            <g id="Group-5" stroke="#000000" stroke-opacity="0.251338505" stroke-width="6">
                <rect id="Rectangle" fill="url(#radialGradient-1)" x="3" y="3" width="1018" height="1018" rx="61"></rect>
                <path d="M78.6062209,64.0239186 L304.657033,259.893435 L286.433899,324.051686 L521.543594,324.051686 L595.952361,462.662095 L936.905692,432.702684 L903.501644,539.78147 L858.240011,539.78147 L887.362384,569.407274 C849.360326,650.898189 818.172396,703.485229 793.949069,727.29912 L793.217161,728.011946 L793.217161,760.633025 L430.818871,740.56684 L384.447876,777.282244 L445.996626,753.774749 L576.041134,964.056329 L99.4380308,964.056329 L158.884457,437.109516 L122.993832,398.212069 C127.448469,223.467114 112.802255,112.019594 78.6062209,64.0239186 Z M389.720005,442.413826 L510.510604,511.91692 L521.719471,490.720351 L521.719471,464.342655 L389.720005,442.413826 Z M160.586555,191.712731 C167.695692,223.290118 174.103825,280.168774 179.672065,362.39695 L179.672065,362.39695 L244.117661,407.792155 L244.016244,405.563796 C240.155133,331.776443 185.645853,233.365626 160.586555,191.712731 Z" id="Combined-Shape" fill="#FFFFFF"></path>
            </g>
            <g id="Group-6">
                <rect id="Rectangle" stroke-opacity="0.251338505" stroke="#000000" stroke-width="20" fill="url(#radialGradient-2)" x="10" y="10" width="1004" height="1004" rx="61"></rect>
                <g id="Group-5" transform="translate(9.881785, 9.881785)">
                    <mask id="mask-4" fill="white">
                        <use xlink:href="#path-3"></use>
                    </mask>
                    <g id="Mask"></g>
                    <g mask="url(#mask-4)" fill="#FFFFFF" id="Combined-Shape" stroke="#9B3535" stroke-linejoin="round" stroke-width="35">
                        <g transform="translate(109.345658, 94.024266)">
                            <path d="M-54.9894225,-72.3438867 L216.194699,168.912968 L201.895252,220.602584 L410.871223,220.602584 L479.859169,352.5496 L809.83976,322.779428 L769.210453,456.500044 L750.375839,456.500044 L760.693897,467.276996 C724.617217,547.814696 694.388436,600.898832 670.819506,627.218314 L670.107336,628.007682 L670.107336,668.910526 L349.566,650.687 L465.97675,914.272014 L14.3535621,914.272014 L48.6174614,348.793199 L15.2730373,311.689438 C19.2948848,162.440154 9.83998428,61.4263104 -14.9546707,9.27406145 L-15.7107212,7.70864702 L-54.9894225,-72.3438867 Z M354.757643,376.374449 L385.706483,394.658398 L387.4105,391.349888 L387.4105,381.943986 L354.757643,376.374449 Z M91.009036,188.633147 C93.2006632,210.631452 95.2793327,235.802261 97.2082725,264.154804 L97.2082725,264.154804 L124.367018,283.796594 L124.045866,282.247267 C117.517062,251.225661 104.672835,218.13071 91.009036,188.633147 Z"></path>
                        </g>
                    </g>
                </g>
                <g id="Group-5" transform="translate(9.881785, 9.881785)">
                    <mask id="mask-6" fill="white">
                        <use xlink:href="#path-5"></use>
                    </mask>
                    <g id="Mask"></g>
                    <g mask="url(#mask-6)" fill="#FFFFFF" id="Combined-Shape" stroke="#9B3535" stroke-linejoin="round" stroke-width="35">
                        <g transform="translate(109.345658, 94.024266)">
                            <path d="M-54.9894225,-72.3438867 L216.194699,168.912968 L201.895252,220.602584 L410.871223,220.602584 L479.859169,352.5496 L809.83976,322.779428 L769.210453,456.500044 L750.375839,456.500044 L760.693897,467.276996 C724.617217,547.814696 694.388436,600.898832 670.819506,627.218314 L670.107336,628.007682 L670.107336,668.910526 L349.566,650.687 L465.97675,914.272014 L14.3535621,914.272014 L48.6174614,348.793199 L15.2730373,311.689438 C19.2948848,162.440154 9.83998428,61.4263104 -14.9546707,9.27406145 L-15.7107212,7.70864702 L-54.9894225,-72.3438867 Z M354.757643,376.374449 L385.706483,394.658398 L387.4105,391.349888 L387.4105,381.943986 L354.757643,376.374449 Z M91.009036,188.633147 C93.2006632,210.631452 95.2793327,235.802261 97.2082725,264.154804 L97.2082725,264.154804 L124.367018,283.796594 L124.045866,282.247267 C117.517062,251.225661 104.672835,218.13071 91.009036,188.633147 Z"></path>
                        </g>
                    </g>
                </g>
            </g>
            <text id="WatchDog" font-family="Poppins-Bold, Poppins" font-size="592" font-weight="bold" fill="#000000">
                <tspan x="1393.33172" y="719.5">WatchDog</tspan>
            </text>
        </g>
    </g>
</svg>